<svg xmlns="http://www.w3.org/2000/svg" viewBox="0 0 432 432"><defs><style>.cls-1,.cls-2,.cls-3,.cls-5{fill:none;stroke:#fff;stroke-miterlimit:10;}.cls-1,.cls-2,.cls-5{stroke-linecap:round;}.cls-1,.cls-3{stroke-width:15.14px;}.cls-2{stroke-width:11.36px;}.cls-4{fill:#fff;}.cls-5{stroke-width:15px;}</style></defs><g id="DeweyWhite"><path class="cls-1" d="M258.32,277.67a45.11,45.11,0,1,1-89.92-7.36"/><path class="cls-2" d="M217.51,237.85l-8.74.18a9.92,9.92,0,1,0,.42,19.83l8.74-.18"/><path class="cls-3" d="M200.16,173a17.07,17.07,0,1,1,34.13-.05"/><circle class="cls-3" cx="159.89" cy="184.91" r="42.36"/><circle class="cls-4" cx="159.89" cy="183.78" r="22.2"/><circle class="cls-3" cx="275.14" cy="184.91" r="42.36"/><circle class="cls-4" cx="275.14" cy="183.78" r="22.2"/><circle class="cls-2" cx="216" cy="220.93" r="140.44"/><path class="cls-4" d="M156.4,335.11C172.62,339,216,365,216,365S172.62,391.12,156.4,395,126.47,381.57,126.47,365,140.32,331.3,156.4,335.11Z"/><path class="cls-4" d="M275.85,395C259.57,391.12,216,365,216,365s43.57-26.08,59.85-29.93c16.09-3.8,29.93,13.4,29.93,29.93S291.94,398.76,275.85,395Z"/><circle class="cls-4" cx="216" cy="365.04" r="24.74"/><path class="cls-5" d="M216,36.5v42s1.26-23-22.52-23"/><path class="cls-5" d="M216,78.46s-1.26-23,22.52-23"/></g></svg>